#N canvas 341 68 584 651 10;
#N canvas 138 179 450 300 square 0;
#X obj 155 239 outlet~;
#X obj 181 18 inlet~;
#X obj 176 120 phasor~;
#X obj 171 165 expr~ $v1 > 0.5;
#X connect 1 0 2 0;
#X connect 2 0 3 0;
#X connect 3 0 0 0;
#X restore 145 141 pd square;
#N canvas 290 88 450 300 slf-ramp 0;
#X obj 48 -18 inlet~;
#X obj 49 7 phasor~;
#X obj 35 78 *~;
#X obj 104 32 expr~ $v1 < 0.5;
#X obj 113 68 -~ 1;
#X obj 112 89 *~ -1;
#X obj 90 121 expr~ 1-$v1;
#X obj 87 150 *~;
#X obj 60 244 outlet~;
#X obj 58 175 *~ 2;
#X obj 56 195 -~ 0.5;
#X obj 37 220 *~ 2;
#X obj 126 -17 inlet;
#X connect 0 0 1 0;
#X connect 1 0 2 0;
#X connect 1 0 3 0;
#X connect 1 0 6 0;
#X connect 2 0 9 0;
#X connect 3 0 2 1;
#X connect 3 0 4 0;
#X connect 4 0 5 0;
#X connect 5 0 7 1;
#X connect 6 0 7 0;
#X connect 7 0 9 0;
#X connect 9 0 10 0;
#X connect 10 0 11 0;
#X connect 11 0 8 0;
#X connect 12 0 1 1;
#X restore 12 61 pd slf-ramp;
#N canvas 65 55 450 300 slf-output 0;
#X obj 41 18 inlet~;
#X obj 38 56 expr~ $v1 > 0;
#X obj 58 142 outlet~;
#X connect 0 0 1 0;
#X connect 1 0 2 0;
#X restore 44 135 pd slf-output;
#X obj 439 86 +;
#X obj 454 59 * 2;
#X obj 495 69 * 4;
#X obj 474 112 +;
#X obj 479 88 b;
#X obj 413 62 b;
#X obj 205 23 r vco-freq;
#X obj 158 104 +~;
#X obj 87 11 r vco-mod;
#X obj 96 81 *~;
#X obj 8 -33 r slf-freq;
#X obj 145 165 s~ vco;
#X obj 37 158 s~ slf;
#X obj 278 169 s~ noise;
#N canvas 306 56 691 445 mixer 0;
#X obj 233 -14 inlet;
#X obj 79 53 sel 0;
#X msg 103 78 0;
#X msg 70 77 1;
#X obj 76 111 *~;
#X obj 21 82 r~ vco;
#X obj 197 53 sel 1;
#X msg 186 75 1;
#X msg 215 74 0;
#X obj 196 119 *~;
#X obj 146 89 r~ slf;
#X obj 273 57 sel 2;
#X msg 265 78 1;
#X msg 299 80 0;
#X obj 286 112 *~;
#X obj 322 101 r~ noise;
#X obj 401 60 sel 3;
#X obj 421 178 *~;
#X msg 397 81 1;
#X msg 428 80 0;
#X obj 453 115 r~ vco;
#X obj 514 118 r~ noise;
#X obj 473 145 *~;
#X obj 9 159 sel 4;
#X msg 3 182 1;
#X msg 35 181 0;
#X obj 37 241 *~;
#X obj -54 199 r~ slf;
#X obj -21 218 r~ noise;
#X obj -39 240 *~;
#X msg 107 308 1;
#X msg 139 307 0;
#X obj 224 363 *~;
#X obj 50 325 r~ slf;
#X obj 83 344 r~ noise;
#X obj 65 366 *~;
#X obj 113 285 sel 5;
#X obj 12 346 *~;
#X obj -20 320 r~ vco;
#X obj 535 256 outlet~;
#X msg 413 313 1;
#X msg 445 312 0;
#X obj 447 372 *~;
#X obj 356 330 r~ slf;
#X obj 371 371 *~;
#X obj 408 285 sel 6;
#X obj 349 303 r~ vco;
#X connect 0 0 1 0;
#X connect 0 0 6 0;
#X connect 0 0 11 0;
#X connect 0 0 16 0;
#X connect 0 0 23 0;
#X connect 0 0 36 0;
#X connect 0 0 45 0;
#X connect 1 0 3 0;
#X connect 1 1 2 0;
#X connect 2 0 4 1;
#X connect 3 0 4 1;
#X connect 4 0 39 0;
#X connect 5 0 4 0;
#X connect 6 0 7 0;
#X connect 6 1 8 0;
#X connect 7 0 9 1;
#X connect 8 0 9 1;
#X connect 9 0 39 0;
#X connect 10 0 9 0;
#X connect 11 0 12 0;
#X connect 11 1 13 0;
#X connect 12 0 14 1;
#X connect 13 0 14 1;
#X connect 14 0 39 0;
#X connect 15 0 14 0;
#X connect 16 0 18 0;
#X connect 16 1 19 0;
#X connect 17 0 39 0;
#X connect 18 0 17 1;
#X connect 19 0 17 1;
#X connect 20 0 22 0;
#X connect 21 0 22 1;
#X connect 22 0 17 0;
#X connect 23 0 24 0;
#X connect 23 1 25 0;
#X connect 24 0 26 1;
#X connect 25 0 26 1;
#X connect 26 0 39 0;
#X connect 27 0 29 0;
#X connect 28 0 29 1;
#X connect 29 0 26 0;
#X connect 30 0 32 1;
#X connect 31 0 32 1;
#X connect 32 0 39 0;
#X connect 33 0 37 1;
#X connect 34 0 35 1;
#X connect 35 0 32 0;
#X connect 36 0 30 0;
#X connect 36 1 31 0;
#X connect 37 0 35 0;
#X connect 38 0 37 0;
#X connect 40 0 42 1;
#X connect 41 0 42 1;
#X connect 42 0 39 0;
#X connect 43 0 44 0;
#X connect 44 0 42 0;
#X connect 45 0 40 0;
#X connect 45 1 41 0;
#X connect 46 0 44 1;
#X restore 425 219 pd mixer;
#X floatatom 461 174 5 0 0 0 - - -;
#N canvas 113 162 450 300 noise 0;
#X obj 93 56 noise~;
#X obj 126 140 expr~ $v1 > 0;
#X obj 127 175 outlet~;
#X obj 127 110 samphold~;
#X obj 175 45 inlet~;
#X obj 181 76 phasor~;
#X connect 0 0 3 0;
#X connect 1 0 2 0;
#X connect 3 0 1 0;
#X connect 4 0 5 0;
#X connect 5 0 3 1;
#X restore 300 132 pd noise;
#X obj 315 70 r noise-freq;
#X obj 237 228 r one-shot-on;
#X obj 250 299 *~;
#X obj 268 275 - 1;
#X obj 311 285 * -1;
#X obj 366 313 *~;
#X obj 123 214 r one-shot;
#X obj 144 290 - 1;
#X obj 143 311 * -1;
#X obj 256 391 *~;
#X obj 97 310 sel 0;
#X obj 99 333 b;
#X obj 105 446 line~;
#X obj 143 374 delay;
#X obj 80 373 pack 1 f;
#X obj 33 279 r attack;
#X obj 187 361 r release;
#X obj 134 418 pack 0 f;
#X obj 258 338 *~;
#X obj 526 263 r double;
#X obj 484 321 *~;
#X obj 460 279 r~ noise;
#X obj 154 396 b;
#X obj 519 1 r mixerc;
#X obj 431 -24 r mixerb;
#X obj 370 -10 r mixera;
#X obj 221 59 r vco-range;
#N canvas 214 321 450 300 vco-freq 0;
#X obj 24 14 inlet;
#X obj 105 14 inlet;
#X obj 105 38 * 3.9;
#X obj 105 58 int;
#X obj 105 79 sel 0;
#X obj 82 173 f;
#X obj 88 101 t b b;
#X obj 109 197 *;
#X msg 92 131 100;
#X obj 113 252 outlet;
#X obj 144 80 sel 1;
#X obj 138 101 t b b;
#X msg 135 133 400;
#X obj 191 81 sel 2;
#X obj 186 103 t b b;
#X msg 190 133 1000;
#X obj 232 104 t b b;
#X msg 235 134 5000;
#X connect 0 0 5 0;
#X connect 1 0 2 0;
#X connect 2 0 3 0;
#X connect 3 0 4 0;
#X connect 4 0 6 0;
#X connect 4 1 10 0;
#X connect 5 0 7 0;
#X connect 6 0 5 0;
#X connect 6 1 8 0;
#X connect 7 0 9 0;
#X connect 8 0 7 1;
#X connect 10 0 11 0;
#X connect 10 1 13 0;
#X connect 11 0 5 0;
#X connect 11 1 12 0;
#X connect 12 0 7 1;
#X connect 13 0 14 0;
#X connect 13 1 16 0;
#X connect 14 0 5 0;
#X connect 14 1 15 0;
#X connect 15 0 7 1;
#X connect 16 0 5 0;
#X connect 16 1 17 0;
#X connect 17 0 7 1;
#X restore 157 80 pd vco-freq;
#X obj 56 -10 r slf-range;
#N canvas 105 67 450 300 slf-freq 0;
#X obj 34 24 inlet;
#X obj 115 24 inlet;
#X obj 115 68 int;
#X obj 115 89 sel 0;
#X obj 92 183 f;
#X obj 98 111 t b b;
#X obj 119 207 *;
#X obj 123 262 outlet;
#X obj 154 90 sel 1;
#X obj 148 111 t b b;
#X obj 201 91 sel 2;
#X obj 196 113 t b b;
#X obj 242 114 t b b;
#X msg 245 144 5000;
#X msg 102 141 1;
#X obj 114 48 * 3.9;
#X msg 145 145 10;
#X msg 200 143 100;
#X connect 0 0 4 0;
#X connect 1 0 15 0;
#X connect 2 0 3 0;
#X connect 3 0 5 0;
#X connect 3 1 8 0;
#X connect 4 0 6 0;
#X connect 5 0 4 0;
#X connect 5 1 14 0;
#X connect 6 0 7 0;
#X connect 8 0 9 0;
#X connect 8 1 10 0;
#X connect 9 0 4 0;
#X connect 9 1 16 0;
#X connect 10 0 11 0;
#X connect 10 1 12 0;
#X connect 11 0 4 0;
#X connect 11 1 17 0;
#X connect 12 0 4 0;
#X connect 12 1 13 0;
#X connect 13 0 6 1;
#X connect 14 0 6 1;
#X connect 15 0 2 0;
#X connect 16 0 6 1;
#X connect 17 0 6 1;
#X restore 8 13 pd slf-freq;
#X obj 236 497 dac~;
#X obj 347 394 loadbang;
#X obj 57 104 print RECSLF-FREQ;
#X obj 136 50 print IMM-SLF;
#X obj 245 450 *~;
#X obj 270 418 r volume;
#X msg 428 367 \; slf-freq 0.5 \; slf-range 0.5 \; vco-mod 510 \; noise-freq
500 \; vco-range 0.5 \; vco-freq 0.5 \; mixera 0 \; mixerb 0 \; mixerc
0 \; one-shot-on 0 \; one-shot 0 \; attack 280 \; release 280 \; volume
0.1;
#X msg 67 264 0.5;
#X obj 75 243 spigot;
#X connect 0 0 14 0;
#X connect 1 0 2 0;
#X connect 1 0 12 0;
#X connect 2 0 15 0;
#X connect 3 0 6 0;
#X connect 4 0 3 1;
#X connect 5 0 6 1;
#X connect 6 0 17 0;
#X connect 6 0 18 0;
#X connect 7 0 6 0;
#X connect 8 0 3 0;
#X connect 9 0 47 0;
#X connect 10 0 0 0;
#X connect 11 0 12 1;
#X connect 12 0 10 0;
#X connect 13 0 49 0;
#X connect 13 0 53 0;
#X connect 17 0 25 1;
#X connect 17 0 38 1;
#X connect 19 0 16 0;
#X connect 20 0 19 0;
#X connect 21 0 23 0;
#X connect 21 0 22 0;
#X connect 21 0 58 1;
#X connect 22 0 38 0;
#X connect 23 0 24 0;
#X connect 24 0 25 0;
#X connect 25 0 54 0;
#X connect 26 0 27 0;
#X connect 26 0 30 0;
#X connect 26 0 58 0;
#X connect 27 0 28 0;
#X connect 28 0 29 0;
#X connect 29 0 54 0;
#X connect 30 0 31 0;
#X connect 31 0 33 0;
#X connect 31 0 34 0;
#X connect 32 0 22 1;
#X connect 33 0 37 0;
#X connect 34 0 32 0;
#X connect 35 0 34 1;
#X connect 35 0 33 1;
#X connect 36 0 37 1;
#X connect 36 0 42 0;
#X connect 37 0 32 0;
#X connect 38 0 29 1;
#X connect 39 0 40 1;
#X connect 40 0 25 1;
#X connect 40 0 38 1;
#X connect 41 0 40 0;
#X connect 42 0 37 0;
#X connect 43 0 5 0;
#X connect 43 0 7 0;
#X connect 44 0 4 0;
#X connect 44 0 8 0;
#X connect 45 0 3 0;
#X connect 46 0 47 1;
#X connect 47 0 10 1;
#X connect 48 0 49 1;
#X connect 49 0 1 0;
#X connect 49 0 52 0;
#X connect 51 0 56 0;
#X connect 54 0 50 0;
#X connect 54 0 50 1;
#X connect 55 0 54 1;
#X connect 57 0 1 1;
#X connect 58 0 57 0;
